<svg width="92" height="15" viewBox="0 0 92 15" fill="none" xmlns="http://www.w3.org/2000/svg">
<path d="M5.15211 14V3.2H5.11611L1.73211 6.26L1.01211 4.64L5.15211 0.86H7.13211V14H5.15211Z" fill="#122947"/>
<path d="M86.3321 6.26C87.1601 6.068 87.7961 5.78 88.2401 5.396C88.6841 5.012 88.9061 4.58 88.9061 4.1C88.9061 3.524 88.6841 3.068 88.2401 2.732C87.7961 2.396 87.1601 2.228 86.3321 2.228C85.5161 2.228 84.8921 2.396 84.4601 2.732C84.0401 3.056 83.8301 3.512 83.8301 4.1C83.8301 4.604 84.0401 5.048 84.4601 5.432C84.8921 5.804 85.5161 6.08 86.3321 6.26ZM86.2421 7.79C85.2941 8.018 84.5741 8.36 84.0821 8.816C83.5901 9.26 83.3441 9.758 83.3441 10.31C83.3441 11.03 83.6081 11.6 84.1361 12.02C84.6761 12.428 85.4081 12.632 86.3321 12.632C87.2561 12.632 87.9701 12.428 88.4741 12.02C88.9901 11.6 89.2481 11.03 89.2481 10.31C89.2481 9.05 88.2461 8.21 86.2421 7.79ZM89.8961 13.154C89.0441 13.838 87.8561 14.18 86.3321 14.18C84.8081 14.18 83.6141 13.838 82.7501 13.154C81.8981 12.47 81.4721 11.552 81.4721 10.4C81.4721 9.704 81.7121 9.062 82.1921 8.474C82.6721 7.874 83.3321 7.412 84.1721 7.088V7.052C83.4521 6.74 82.8941 6.314 82.4981 5.774C82.1141 5.222 81.9221 4.604 81.9221 3.92C81.9221 2.948 82.3121 2.168 83.0921 1.58C83.8721 0.98 84.9521 0.68 86.3321 0.68C87.7121 0.68 88.7921 0.98 89.5721 1.58C90.3521 2.168 90.7421 2.948 90.7421 3.92C90.7421 5.264 89.9921 6.248 88.4921 6.872V6.908C90.2921 7.52 91.1921 8.684 91.1921 10.4C91.1921 11.552 90.7601 12.47 89.8961 13.154Z" fill="#9A9DA0"/>
<line x1="21" y1="7.5" x2="71" y2="7.5" stroke="#122947"/>
</svg>
