<svg width="11" height="18" viewBox="0 0 11 18" fill="none" xmlns="http://www.w3.org/2000/svg">
<rect width="11" height="18" fill="#E5E5E5"/>
<g id="&#208;&#164;&#208;&#184;&#208;&#187;&#209;&#140;&#209;&#130;&#209;&#128;" clip-path="url(#clip0_0_1)">
<rect width="1366" height="3679" transform="translate(-198 -3225)" fill="#F8F8F6"/>
<g id="contacts">
<rect id="Rectangle 39" x="-100" y="-435" width="670" height="554" fill="#F4F1ED"/>
<path id="Vector" d="M6.28571 7H11L10.4762 9H6.28571V18H4.19048V9H0V7H4.19048V5.128C4.19048 3.345 4.38533 2.698 4.74991 2.046C5.10715 1.40181 5.65904 0.875009 6.3339 0.534C7.01695 0.186 7.69476 0 9.56267 0C10.1095 0 10.5893 0.0500001 11 0.15V2H9.56267C8.17562 2 7.75343 2.078 7.32286 2.298C7.00438 2.46 6.76762 2.686 6.59791 2.99C6.36743 3.401 6.28571 3.804 6.28571 5.128V7Z" fill="#122947"/>
</g>
</g>
<defs>
<clipPath id="clip0_0_1">
<rect width="1366" height="3679" fill="white" transform="translate(-198 -3225)"/>
</clipPath>
</defs>
</svg>
