<svg width="133" height="27" viewBox="0 0 133 27" fill="none" xmlns="http://www.w3.org/2000/svg">
<path d="M3.372 11.564H6.612L15 0.439999H18.708L9.6 12.788L19.536 26H15.828L6.972 14.444H3.372V26H0.132V0.439999H3.372V11.564ZM26.8097 26.36C25.9217 26.36 25.0937 26.216 24.3257 25.928C23.5577 25.616 22.8857 25.196 22.3097 24.668C21.7577 24.14 21.3137 23.528 20.9777 22.832C20.6657 22.112 20.5097 21.332 20.5097 20.492C20.5097 19.628 20.7017 18.848 21.0857 18.152C21.4697 17.432 22.0097 16.82 22.7057 16.316C23.4257 15.812 24.2657 15.416 25.2257 15.128C26.2097 14.84 27.2777 14.696 28.4297 14.696C29.3417 14.696 30.2657 14.78 31.2017 14.948C32.1377 15.116 32.9657 15.344 33.6857 15.632V14.12C33.6857 12.584 33.2537 11.384 32.3897 10.52C31.5257 9.632 30.3017 9.188 28.7177 9.188C26.8217 9.188 24.8297 9.92 22.7417 11.384L21.6977 9.332C24.1217 7.7 26.5577 6.884 29.0057 6.884C31.4777 6.884 33.3977 7.544 34.7657 8.864C36.1577 10.184 36.8537 12.044 36.8537 14.444V22.112C36.8537 22.856 37.1897 23.24 37.8617 23.264V26C37.5257 26.048 37.2497 26.084 37.0337 26.108C36.8177 26.132 36.5897 26.144 36.3497 26.144C35.7257 26.144 35.2217 25.964 34.8377 25.604C34.4777 25.22 34.2617 24.764 34.1897 24.236L34.1177 22.904C33.2777 24.032 32.2097 24.896 30.9137 25.496C29.6417 26.072 28.2737 26.36 26.8097 26.36ZM27.6377 23.984C28.7657 23.984 29.8097 23.78 30.7697 23.372C31.7537 22.94 32.4977 22.376 33.0017 21.68C33.4577 21.224 33.6857 20.756 33.6857 20.276V17.504C32.1497 16.904 30.5537 16.604 28.8977 16.604C27.3137 16.604 26.0177 16.94 25.0097 17.612C24.0257 18.284 23.5337 19.16 23.5337 20.24C23.5337 20.768 23.6297 21.26 23.8217 21.716C24.0377 22.172 24.3257 22.568 24.6857 22.904C25.0697 23.24 25.5137 23.504 26.0177 23.696C26.5217 23.888 27.0617 23.984 27.6377 23.984ZM49.3395 26H46.2435V9.944H39.9435V7.208H55.6395V9.944H49.3395V26ZM63.7589 26.36C62.8709 26.36 62.0429 26.216 61.2749 25.928C60.5069 25.616 59.8349 25.196 59.2589 24.668C58.7069 24.14 58.2629 23.528 57.9269 22.832C57.6149 22.112 57.4589 21.332 57.4589 20.492C57.4589 19.628 57.6509 18.848 58.0349 18.152C58.4189 17.432 58.9589 16.82 59.6549 16.316C60.3749 15.812 61.2149 15.416 62.1749 15.128C63.1589 14.84 64.2269 14.696 65.3789 14.696C66.2909 14.696 67.2149 14.78 68.1509 14.948C69.0869 15.116 69.9149 15.344 70.6349 15.632V14.12C70.6349 12.584 70.2029 11.384 69.3389 10.52C68.4749 9.632 67.2509 9.188 65.6669 9.188C63.7709 9.188 61.7789 9.92 59.6909 11.384L58.6469 9.332C61.0709 7.7 63.5069 6.884 65.9549 6.884C68.4269 6.884 70.3469 7.544 71.7149 8.864C73.1069 10.184 73.8029 12.044 73.8029 14.444V22.112C73.8029 22.856 74.1389 23.24 74.8109 23.264V26C74.4749 26.048 74.1989 26.084 73.9829 26.108C73.7669 26.132 73.5389 26.144 73.2989 26.144C72.6749 26.144 72.1709 25.964 71.7869 25.604C71.4269 25.22 71.2109 24.764 71.1389 24.236L71.0669 22.904C70.2269 24.032 69.1589 24.896 67.8629 25.496C66.5909 26.072 65.2229 26.36 63.7589 26.36ZM64.5869 23.984C65.7149 23.984 66.7589 23.78 67.7189 23.372C68.7029 22.94 69.4469 22.376 69.9509 21.68C70.4069 21.224 70.6349 20.756 70.6349 20.276V17.504C69.0989 16.904 67.5029 16.604 65.8469 16.604C64.2629 16.604 62.9669 16.94 61.9589 17.612C60.9749 18.284 60.4829 19.16 60.4829 20.24C60.4829 20.768 60.5789 21.26 60.7709 21.716C60.9869 22.172 61.2749 22.568 61.6349 22.904C62.0189 23.24 62.4629 23.504 62.9669 23.696C63.4709 23.888 64.0109 23.984 64.5869 23.984ZM76.4917 23.408C77.2597 23.336 77.8957 23.156 78.3997 22.868C78.9277 22.556 79.3597 22.016 79.6957 21.248C80.0557 20.456 80.3557 19.364 80.5957 17.972C80.8357 16.556 81.0757 14.72 81.3157 12.464L81.8917 7.208H93.5917V26H90.4957V9.692H84.8077L84.2677 13.76C83.9317 16.208 83.5717 18.224 83.1877 19.808C82.8277 21.368 82.3717 22.616 81.8197 23.552C81.2677 24.464 80.6077 25.112 79.8397 25.496C79.0717 25.88 78.1357 26.108 77.0317 26.18L76.4917 23.408ZM106.975 26.36C105.559 26.36 104.263 26.096 103.087 25.568C101.935 25.04 100.939 24.332 100.099 23.444C99.2829 22.556 98.6469 21.524 98.1909 20.348C97.7349 19.172 97.5069 17.936 97.5069 16.64C97.5069 15.32 97.7349 14.072 98.1909 12.896C98.6709 11.72 99.3189 10.688 100.135 9.8C100.975 8.912 101.971 8.204 103.123 7.676C104.299 7.148 105.583 6.884 106.975 6.884C108.367 6.884 109.651 7.148 110.827 7.676C112.003 8.204 112.999 8.912 113.815 9.8C114.655 10.688 115.303 11.72 115.759 12.896C116.239 14.072 116.479 15.32 116.479 16.64C116.479 17.936 116.251 19.172 115.795 20.348C115.339 21.524 114.691 22.556 113.851 23.444C113.011 24.332 112.003 25.04 110.827 25.568C109.675 26.096 108.391 26.36 106.975 26.36ZM100.747 16.676C100.747 17.66 100.903 18.572 101.215 19.412C101.551 20.252 101.995 20.984 102.547 21.608C103.123 22.232 103.783 22.724 104.527 23.084C105.295 23.444 106.111 23.624 106.975 23.624C107.839 23.624 108.643 23.444 109.387 23.084C110.155 22.724 110.827 22.232 111.403 21.608C111.979 20.96 112.423 20.216 112.735 19.376C113.071 18.512 113.239 17.588 113.239 16.604C113.239 15.644 113.071 14.744 112.735 13.904C112.423 13.04 111.979 12.296 111.403 11.672C110.827 11.024 110.155 10.52 109.387 10.16C108.643 9.8 107.839 9.62 106.975 9.62C106.111 9.62 105.295 9.812 104.527 10.196C103.783 10.556 103.123 11.06 102.547 11.708C101.995 12.332 101.551 13.076 101.215 13.94C100.903 14.78 100.747 15.692 100.747 16.676ZM132.342 9.584H123.486V26H120.39V7.208H132.342V9.584Z" fill="#122947"/>
</svg>
